<svg xmlns="http://www.w3.org/2000/svg" xmlns:xlink="http://www.w3.org/1999/xlink" preserveAspectRatio="xMidYMid" width="123" height="47" viewBox="0 0 123 47">
  <defs>
    <style>
      .cls-1 {
        fill: #fff;
      }

      .cls-1, .cls-2 {
        fill-rule: evenodd;
      }

      .cls-2 {
        fill: #fecc0c;
      }
    </style>
  </defs>
  <path d="M122.986,38.127 C122.986,40.922 122.989,43.717 122.981,46.512 C122.980,46.713 123.157,47.084 122.671,46.987 C121.143,46.774 119.594,46.660 118.091,46.332 C110.519,44.683 104.041,37.650 102.970,29.940 C102.786,28.615 102.683,27.267 102.679,25.929 C102.653,17.602 102.666,9.275 102.665,0.948 C102.665,0.632 102.653,0.316 102.646,0.000 L111.476,0.000 C111.470,3.915 111.463,7.830 111.460,11.746 C111.460,11.790 111.507,11.834 111.581,11.964 C113.073,11.964 114.613,11.957 116.154,11.966 C118.431,11.979 120.709,12.004 122.986,12.024 L122.986,20.725 L111.447,20.725 C111.447,22.882 111.405,24.958 111.454,27.032 C111.601,33.207 116.817,38.208 122.986,38.127 ZM65.048,20.707 L73.733,20.707 L73.733,29.464 L64.957,29.464 C64.957,35.061 64.960,40.570 64.951,46.079 C64.950,46.382 64.855,46.684 64.804,46.987 L56.290,46.987 C56.276,46.619 56.250,46.251 56.250,45.883 C56.247,40.715 56.248,35.547 56.248,30.380 C56.248,30.075 56.248,29.771 56.248,29.451 L25.235,29.451 C25.358,31.898 28.080,35.479 31.143,36.907 C36.063,39.199 40.565,38.358 44.462,34.836 C46.522,36.904 48.556,38.946 50.592,40.989 C44.518,47.512 34.208,48.557 26.851,44.599 C22.694,42.362 19.507,39.099 17.696,34.715 C14.889,27.919 15.522,21.322 19.439,14.997 C19.198,14.997 19.069,14.991 18.942,14.998 C14.065,15.253 9.192,19.979 8.840,24.928 C8.672,27.290 8.716,29.669 8.704,32.040 C8.679,37.022 8.681,42.004 8.672,46.987 L-0.000,46.987 C-0.000,39.446 -0.000,31.905 -0.000,24.364 C0.052,24.190 0.126,24.019 0.152,23.841 C1.402,15.539 6.110,10.071 13.845,7.148 C15.885,6.377 18.043,6.089 20.335,6.193 L20.335,13.866 C25.840,7.387 32.677,4.911 40.739,6.652 C48.873,8.410 53.785,13.827 56.182,21.645 C56.264,20.285 56.267,18.909 56.440,17.555 C57.457,9.596 63.304,2.825 70.973,0.713 C72.102,0.402 73.271,0.234 74.422,0.000 C75.158,0.000 75.894,0.000 76.630,0.000 L76.630,8.663 C69.449,8.594 64.474,15.246 65.048,20.707 ZM35.604,14.929 C31.579,15.245 27.120,18.100 26.486,20.664 L46.235,20.664 C44.276,17.044 40.134,14.574 35.604,14.929 Z" class="cls-1"/>
  <path d="M97.653,29.423 C95.223,29.425 93.301,27.505 93.296,25.068 C93.291,22.631 95.206,20.708 97.640,20.705 C100.062,20.702 102.005,22.638 102.006,25.055 C102.008,27.473 100.067,29.420 97.653,29.423 ZM89.515,29.247 C86.533,30.069 83.888,27.899 83.889,25.057 C83.889,22.629 85.819,20.701 88.246,20.704 C91.041,20.707 93.136,23.226 92.457,26.174 C92.154,27.491 90.814,28.888 89.515,29.247 ZM88.283,19.991 C86.028,20.010 84.095,18.255 83.905,16.001 C83.688,13.415 85.718,11.244 88.247,11.245 C90.653,11.246 92.590,13.203 92.585,15.628 C92.579,18.054 90.685,19.971 88.283,19.991 ZM78.764,29.423 C76.387,29.404 74.418,27.383 74.462,25.006 C74.507,22.599 76.465,20.692 78.876,20.706 C81.273,20.721 83.231,22.694 83.217,25.079 C83.202,27.505 81.217,29.441 78.764,29.423 ZM88.249,30.107 C90.635,30.112 92.579,32.077 92.584,34.487 C92.588,36.901 90.658,38.871 88.271,38.890 C85.859,38.908 83.882,36.914 83.889,34.470 C83.897,32.070 85.864,30.102 88.249,30.107 Z" class="cls-2"/>
</svg>
