<?xml version="1.0" encoding="utf-8"?>
<!-- Generator: Adobe Illustrator 19.1.0, SVG Export Plug-In . SVG Version: 6.00 Build 0)  -->
<svg version="1.2" baseProfile="tiny" id="Layer_2" xmlns="http://www.w3.org/2000/svg" xmlns:xlink="http://www.w3.org/1999/xlink"
	 x="0px" y="0px" viewBox="0 0 416 383" xml:space="preserve">
<path fill="none" stroke="#F9C913" stroke-width="25" stroke-linecap="round" stroke-miterlimit="10" d="M98.8,87.4H78.3
	c-16.6,0-30,13.4-30,30v198.2c0,16.6,13.4,30,30,30h259.5c16.6,0,30-13.4,30-30V117.4c0-16.6-13.4-30-30-30h-20.5"/>
<line fill="none" stroke="#F9C913" stroke-width="25" stroke-linecap="round" stroke-miterlimit="10" x1="245.1" y1="246.5" x2="358" y2="337.7"/>
<line fill="none" stroke="#F9C913" stroke-width="25" stroke-linecap="round" stroke-miterlimit="10" x1="58" y1="337.7" x2="170.9" y2="246.5"/>
<path fill="none" stroke="#F9C913" stroke-width="25" stroke-linecap="round" stroke-miterlimit="10" d="M48.3,147.4l134.6,108.8
	c14.7,11.9,35.6,11.9,50.3,0l134.6-108.8"/>
<path fill="none" stroke="#F9C913" stroke-width="25" stroke-linecap="round" stroke-miterlimit="10" d="M317.2,188.2V57.4
	c0-11-9-20-20-20H118.8c-11,0-20,9-20,20v130.8"/>
<line fill="none" stroke="#F9C913" stroke-width="25" stroke-linecap="round" stroke-miterlimit="10" x1="152.4" y1="87.4" x2="263.6" y2="87.4"/>
<line fill="none" stroke="#F9C913" stroke-width="25" stroke-linecap="round" stroke-miterlimit="10" x1="152.4" y1="137.4" x2="263.6" y2="137.4"/>
<line fill="none" stroke="#F9C913" stroke-width="25" stroke-linecap="round" stroke-miterlimit="10" x1="152.4" y1="187.4" x2="203.6" y2="187.4"/>
</svg>
