<?xml version="1.0" encoding="utf-8"?>
<!-- Generator: Adobe Illustrator 19.1.0, SVG Export Plug-In . SVG Version: 6.00 Build 0)  -->
<svg version="1.2" baseProfile="tiny" id="Camada_1"
	 xmlns="http://www.w3.org/2000/svg" xmlns:xlink="http://www.w3.org/1999/xlink" x="0px" y="0px" viewBox="0 0 165 218.7"
	 xml:space="preserve">
<g>
	<path fill="none" d="M82.5,15C45.3,15,15,45.3,15,82.5c0,21.2,24.5,66.1,65.5,120.2c0.7,0.9,1.5,1,2,1s1.3-0.1,2-1
		c41-54.1,65.5-99,65.5-120.2C150,45.3,119.7,15,82.5,15z M82.5,112.8c-17.2,0-31.2-14-31.2-31.2c0-17.2,14-31.2,31.2-31.2
		c17.2,0,31.2,14,31.2,31.2C113.7,98.8,99.7,112.8,82.5,112.8z"/>
	<path fill="none" d="M82.5,65.4c-8.9,0-16.2,7.3-16.2,16.2c0,8.9,7.3,16.2,16.2,16.2s16.2-7.3,16.2-16.2
		C98.7,72.7,91.4,65.4,82.5,65.4z"/>
	<path fill="#F9C913" d="M82.5,0C37,0,0,37,0,82.5c0,15.9,8.9,38.5,27.3,69.1c14.8,24.6,32.2,48.2,41.2,60.2
		c3.3,4.4,8.4,6.9,13.9,6.9s10.6-2.5,13.9-6.9c9.1-11.9,26.4-35.6,41.2-60.2C156.1,121,165,98.4,165,82.5C165,37,128,0,82.5,0z
		 M84.5,202.7c-0.7,0.9-1.5,1-2,1s-1.3-0.1-2-1c-41-54.1-65.5-99-65.5-120.2C15,45.3,45.3,15,82.5,15S150,45.3,150,82.5
		C150,103.7,125.5,148.6,84.5,202.7z"/>
	<path fill="#F9C913" d="M82.5,50.4c-17.2,0-31.2,14-31.2,31.2c0,17.2,14,31.2,31.2,31.2c17.2,0,31.2-14,31.2-31.2
		C113.7,64.4,99.7,50.4,82.5,50.4z M82.5,97.8c-8.9,0-16.2-7.3-16.2-16.2c0-8.9,7.3-16.2,16.2-16.2s16.2,7.3,16.2,16.2
		C98.7,90.5,91.4,97.8,82.5,97.8z"/>
</g>
</svg>
