<?xml version="1.0" encoding="utf-8"?>
<!-- Generator: Adobe Illustrator 19.1.0, SVG Export Plug-In . SVG Version: 6.00 Build 0)  -->
<svg version="1.2" baseProfile="tiny" id="Camada_1"
	 xmlns="http://www.w3.org/2000/svg" xmlns:xlink="http://www.w3.org/1999/xlink" x="0px" y="0px" viewBox="0 0 401.3 401.3"
	 xml:space="preserve">
<g>
	<path fill="none" d="M180.7,297.2c0,11,9,20,20,20c11,0,20-9,20-20s-9-20-20-20C189.6,277.2,180.7,286.2,180.7,297.2z"/>
	<path fill="none" d="M180.7,104.1c0,11,9,20,20,20c11,0,20-9,20-20s-9-20-20-20C189.6,84.1,180.7,93,180.7,104.1z"/>
	<path d="M15,200.7c0-26.7,5.7-52.2,15.9-75.1H26c-4.1,0-7.5-3.4-7.5-7.5c0-0.8,0.1-1.6,0.4-2.3C6.8,141.5,0,170.3,0,200.7
		c0,109.7,88.6,199.2,198,200.6c-27.3-0.7-52.1-12-70.3-29.9C61.5,342.9,15,277.1,15,200.7z"/>
	<path d="M386.3,200.7c0,43.6-15.4,85.9-43.4,119.3c-2.7,3.2-2.2,7.9,0.9,10.6c3.2,2.7,7.9,2.2,10.6-0.9
		c30.2-36,46.9-81.8,46.9-128.9C401.3,90,311.3,0,200.7,0h0c28,0,54.1,11.1,73.2,30.1C339.9,58.5,386.3,124.3,386.3,200.7z"/>
	<path d="M44.9,78.9h15.7C94.7,39.8,144.8,15,200.7,15c-4.1,0-7.5-3.4-7.5-7.5c0-4.1,3.4-7.5,7.5-7.5h0c-65.9,0-124.4,31.9-161,81.1
		C41,79.7,42.8,78.9,44.9,78.9z"/>
	<path d="M208.2,393.8c0,4.1-3.4,7.5-7.5,7.5c35.3,0,70-9.3,100.3-26.8c3.6-2.1,4.8-6.7,2.7-10.2c-2.1-3.6-6.7-4.8-10.2-2.7
		c-28.1,16.2-60.2,24.8-92.8,24.8C204.8,386.3,208.2,389.7,208.2,393.8z"/>
	<path d="M26,110.5h12.4c3.2-5.7,6.7-11.3,10.5-16.6h-3.9c-4.1,0-7.5-3.4-7.5-7.5c0-1.3,0.3-2.4,0.9-3.5
		c-7.1,9.8-13.3,20.2-18.6,31.1C21,111.9,23.3,110.5,26,110.5z"/>
	<path d="M193.2,7.5c0,4.1,3.4,7.5,7.5,7.5c35.9,0,68.1,21.4,82.1,54.4c1.2,2.9,4,4.6,6.9,4.6c1,0,2-0.2,2.9-0.6
		c3.8-1.6,5.6-6,4-9.8c-5.4-12.8-13.2-24.1-22.7-33.5C254.7,11.1,228.7,0,200.7,0h0C196.5,0,193.2,3.4,193.2,7.5z"/>
	<path d="M208.2,393.8c0-4.1-3.4-7.5-7.5-7.5c-49.1,0-89.1-40-89.1-89.1c0-23.1,8.8-45,24.8-61.7c17-17.7,39.8-27.4,64.3-27.4
		c57.4,0,104.1-46.7,104.1-104.1c0-4.1-3.4-7.5-7.5-7.5s-7.5,3.4-7.5,7.5c0,49.1-40,89.1-89.1,89.1c-28.6,0-55.3,11.4-75.1,32
		c-18.7,19.5-29,45.1-29,72.1c0,29,11.9,55.2,31.1,74.1c18.2,17.9,43,29.2,70.3,29.9c0.9,0,1.8,0,2.7,0
		C204.8,401.3,208.2,397.9,208.2,393.8z"/>
	<path d="M165.7,104.1c0,19.3,15.7,35,35,35c19.3,0,35-15.7,35-35s-15.7-35-35-35C181.4,69.1,165.7,84.8,165.7,104.1z M220.7,104.1
		c0,11-9,20-20,20c-11,0-20-9-20-20s9-20,20-20C211.7,84.1,220.7,93,220.7,104.1z"/>
	<path d="M165.7,297.2c0,19.3,15.7,35,35,35c19.3,0,35-15.7,35-35s-15.7-35-35-35C181.4,262.2,165.7,277.9,165.7,297.2z
		 M220.7,297.2c0,11-9,20-20,20c-11,0-20-9-20-20s9-20,20-20C211.7,277.2,220.7,286.2,220.7,297.2z"/>
	<path d="M44.9,93.9h3.9h64.4c4.1,0,7.5-3.4,7.5-7.5s-3.4-7.5-7.5-7.5H60.6H44.9c-2.1,0-4,0.8-5.3,2.2c-0.5,0.5-1,1.1-1.3,1.8
		c-0.5,1-0.9,2.2-0.9,3.5C37.4,90.5,40.8,93.9,44.9,93.9z"/>
	<path d="M26,125.5h4.9h28.4c4.1,0,7.5-3.4,7.5-7.5s-3.4-7.5-7.5-7.5H38.4H26c-2.7,0-5.1,1.4-6.4,3.6c-0.3,0.5-0.6,1-0.8,1.6
		c-0.2,0.7-0.4,1.5-0.4,2.3C18.5,122.2,21.9,125.5,26,125.5z"/>
</g>
</svg>
