<?xml version="1.0" encoding="utf-8"?>
<!-- Generator: Adobe Illustrator 19.1.0, SVG Export Plug-In . SVG Version: 6.00 Build 0)  -->
<svg version="1.2" baseProfile="tiny" id="Camada_1"
	 xmlns="http://www.w3.org/2000/svg" xmlns:xlink="http://www.w3.org/1999/xlink" x="0px" y="0px" viewBox="0 0 453 379.5"
	 xml:space="preserve">
<g>
	<path fill="none" d="M226.5,203.2c-23.9,0-43.6,17.8-46.8,40.8c13.4,3.5,23.3,15.7,23.3,30.2v19.2c0,8-3,15.3-7.9,20.8
		c13.4,5.5,24.6,15.5,31.4,28.1c6.9-12.7,18-22.7,31.4-28.1c-4.9-5.5-7.9-12.8-7.9-20.8v-19.2c0-14.5,9.9-26.7,23.3-30.2
		C270.1,221,250.4,203.2,226.5,203.2z"/>
	<path fill="none" d="M188,50.5V31.2c0-9-7.3-16.2-16.2-16.2s-16.2,7.3-16.2,16.2v19.2c0,9,7.3,16.2,16.2,16.2S188,59.5,188,50.5z"
		/>
	<path fill="none" d="M336,203.2c-23.9,0-43.6,17.8-46.8,40.8c13.4,3.5,23.3,15.7,23.3,30.2v19.2c0,8-3,15.3-7.9,20.8
		c13.4,5.5,24.6,15.5,31.4,28.1c6.9-12.7,18-22.7,31.4-28.1c-4.9-5.5-7.9-12.8-7.9-20.8v-19.2c0-14.5,9.9-26.7,23.3-30.2
		C379.6,221,359.9,203.2,336,203.2z"/>
	<path fill="none" d="M297.5,50.5V31.2c0-9-7.3-16.2-16.2-16.2S265,22.3,265,31.2v19.2c0,9,7.3,16.2,16.2,16.2
		S297.5,59.5,297.5,50.5z"/>
	<path fill="none" d="M319.8,152.8V172c0,9,7.3,16.2,16.2,16.2s16.2-7.3,16.2-16.2v-19.2c0-9-7.3-16.2-16.2-16.2
		S319.8,143.8,319.8,152.8z"/>
	<path fill="none" d="M171.7,220.9c6.9-12.7,18-22.7,31.4-28.1c-4.9-5.5-7.9-12.8-7.9-20.8v-19.2c0-14.5,9.9-26.7,23.3-30.2
		c-3.2-23-22.9-40.8-46.8-40.8c-23.9,0-43.6,17.8-46.8,40.8c13.4,3.5,23.3,15.7,23.3,30.2V172c0,8-3,15.3-7.9,20.8
		C153.7,198.2,164.9,208.2,171.7,220.9z"/>
	<path fill="none" d="M117,203.2c-23.9,0-43.6,17.8-46.8,40.8c13.4,3.5,23.3,15.7,23.3,30.2v19.2c0,8-3,15.3-7.9,20.8
		c13.4,5.5,24.6,15.5,31.4,28.1c6.9-12.7,18-22.7,31.4-28.1c-4.9-5.5-7.9-12.8-7.9-20.8v-19.2c0-14.5,9.9-26.7,23.3-30.2
		C160.6,221,140.9,203.2,117,203.2z"/>
	<path fill="none" d="M210.2,152.8V172c0,9,7.3,16.2,16.3,16.2c9,0,16.2-7.3,16.2-16.2v-19.2c0-9-7.3-16.2-16.2-16.2
		C217.5,136.5,210.2,143.8,210.2,152.8z"/>
	<path fill="none" d="M46,274.2v19.2c0,9,7.3,16.2,16.2,16.2s16.2-7.3,16.2-16.2v-19.2c0-9-7.3-16.2-16.2-16.2S46,265.3,46,274.2z"
		/>
	<path fill="none" d="M155.5,274.2v19.2c0,9,7.3,16.2,16.2,16.2s16.2-7.3,16.2-16.2v-19.2c0-9-7.3-16.2-16.2-16.2
		S155.5,265.3,155.5,274.2z"/>
	<path fill="none" d="M100.7,152.8V172c0,9,7.3,16.2,16.2,16.2s16.2-7.3,16.2-16.2v-19.2c0-9-7.3-16.2-16.2-16.2
		S100.7,143.8,100.7,152.8z"/>
	<path fill="none" d="M257.8,152.8V172c0,8-3,15.3-7.9,20.8c13.4,5.5,24.6,15.5,31.4,28.1c6.9-12.7,18-22.7,31.4-28.1
		c-4.9-5.5-7.9-12.8-7.9-20.8v-19.2c0-14.5,9.9-26.7,23.3-30.2c-3.2-23-22.9-40.8-46.8-40.8s-43.6,17.8-46.8,40.8
		C247.8,126.1,257.8,138.3,257.8,152.8z"/>
	<path fill="none" d="M265,274.2v19.2c0,9,7.3,16.2,16.2,16.2s16.2-7.3,16.2-16.2v-19.2c0-9-7.3-16.2-16.2-16.2S265,265.3,265,274.2
		z"/>
	<path fill="none" d="M407,293.5v-19.2c0-9-7.3-16.2-16.2-16.2s-16.2,7.3-16.2,16.2v19.2c0,9,7.3,16.2,16.2,16.2
		S407,302.5,407,293.5z"/>
	<path d="M38.9,314.3C16.1,323.5,0,345.9,0,372v0c0,4.1,3.4,7.5,7.5,7.5c4.1,0,7.5-3.4,7.5-7.5c0-26.1,21.2-47.2,47.2-47.2
		C53,324.8,44.7,320.7,38.9,314.3z"/>
	<path d="M85.6,314.3c-5.7,6.4-14,10.5-23.3,10.5c26.1,0,47.2,21.2,47.2,47.2c0-10.7,2.7-20.8,7.5-29.6
		C110.1,329.7,99,319.7,85.6,314.3z"/>
	<path d="M85.6,314.3c4.9-5.5,7.9-12.8,7.9-20.8v-19.2c0-14.5-9.9-26.7-23.3-30.2c-0.3,2.1-0.5,4.3-0.5,6.5c0,4.1-3.4,7.5-7.5,7.5
		c9,0,16.2,7.3,16.2,16.2v19.2c0,9-7.3,16.2-16.2,16.2S46,302.5,46,293.5v-19.2c0-9,7.3-16.2,16.2-16.2c-4.1,0-7.5-3.4-7.5-7.5
		c0-2.3,0.1-4.5,0.4-6.7C41.3,247.1,31,259.5,31,274.2v19.2c0,8,3,15.3,7.9,20.8c5.7,6.4,14,10.5,23.3,10.5S79.8,320.7,85.6,314.3z"
		/>
	<path d="M148.4,314.3c-13.4,5.5-24.6,15.5-31.4,28.1c-4.8,8.8-7.5,18.9-7.5,29.6c0,4.1,3.4,7.5,7.5,7.5s7.5-3.4,7.5-7.5
		c0-26.1,21.2-47.2,47.2-47.2C162.5,324.8,154.2,320.7,148.4,314.3z"/>
	<path d="M195.1,314.3c-5.7,6.4-14,10.5-23.3,10.5c26.1,0,47.3,21.2,47.3,47.2c0-10.7,2.7-20.8,7.5-29.6
		C219.6,329.7,208.5,319.7,195.1,314.3z"/>
	<path d="M195.1,314.3c4.9-5.5,7.9-12.8,7.9-20.8v-19.2c0-14.5-9.9-26.7-23.3-30.2c-0.3,2.1-0.5,4.3-0.5,6.5c0,4.1-3.4,7.5-7.5,7.5
		c9,0,16.2,7.3,16.2,16.2v19.2c0,9-7.3,16.2-16.2,16.2s-16.2-7.3-16.2-16.2v-19.2c0-9,7.3-16.2,16.2-16.2c-4.1,0-7.5-3.4-7.5-7.5
		c0-2.2-0.2-4.4-0.5-6.5c-13.4,3.5-23.3,15.7-23.3,30.2v19.2c0,8,3,15.3,7.9,20.8c5.7,6.4,14,10.5,23.3,10.5
		C181,324.8,189.3,320.7,195.1,314.3z"/>
	<path d="M257.9,314.3c-13.4,5.5-24.6,15.5-31.4,28.1c-4.8,8.8-7.5,18.9-7.5,29.6c0,4.1,3.4,7.5,7.5,7.5c4.1,0,7.5-3.4,7.5-7.5
		c0-26.1,21.2-47.2,47.2-47.2C272,324.8,263.7,320.7,257.9,314.3z"/>
	<path d="M304.6,314.3c-5.7,6.4-14,10.5-23.3,10.5c26.1,0,47.2,21.2,47.2,47.2c0-10.7,2.7-20.8,7.5-29.6
		C329.1,329.7,318,319.7,304.6,314.3z"/>
	<path d="M304.6,314.3c4.9-5.5,7.9-12.8,7.9-20.8v-19.2c0-14.5-9.9-26.7-23.3-30.2c-0.3,2.1-0.5,4.3-0.5,6.5c0,4.1-3.4,7.5-7.5,7.5
		c9,0,16.2,7.3,16.2,16.2v19.2c0,9-7.3,16.2-16.2,16.2s-16.2-7.3-16.2-16.2v-19.2c0-9,7.3-16.2,16.2-16.2c-4.1,0-7.5-3.4-7.5-7.5
		c0-2.2-0.2-4.4-0.5-6.5c-13.4,3.5-23.3,15.7-23.3,30.2v19.2c0,8,3,15.3,7.9,20.8c5.7,6.4,14,10.5,23.3,10.5
		S298.8,320.7,304.6,314.3z"/>
	<path d="M171.7,220.9c-6.9-12.7-18-22.7-31.4-28.1c-5.7,6.4-14,10.5-23.3,10.5c23.9,0,43.6,17.8,46.8,40.8c0.3,2.1,0.5,4.3,0.5,6.5
		C164.2,239.8,167,229.7,171.7,220.9z"/>
	<path d="M62.2,258c4.1,0,7.5-3.4,7.5-7.5c0-2.2,0.2-4.4,0.5-6.5c3.2-23,22.9-40.8,46.8-40.8c-9.3,0-17.6-4-23.3-10.5
		c-20.8,8.4-36.1,27.9-38.6,51c-0.2,2.2-0.4,4.4-0.4,6.7C54.7,254.6,58.1,258,62.2,258z"/>
	<path d="M117,203.2c9.3,0,17.6-4,23.3-10.5c4.9-5.5,7.9-12.8,7.9-20.8v-19.2c0-14.5-9.9-26.7-23.3-30.2c-0.3,2.1-0.5,4.3-0.5,6.5
		c0,4.1-3.4,7.5-7.5,7.5c9,0,16.2,7.3,16.2,16.2V172c0,9-7.3,16.2-16.2,16.2s-16.2-7.3-16.2-16.2v-19.2c0-9,7.3-16.2,16.2-16.2
		c-4.1,0-7.5-3.4-7.5-7.5c0-2.3,0.1-4.5,0.4-6.7c-13.8,3.2-24.1,15.6-24.1,30.4V172c0,8,3,15.3,7.9,20.8
		C99.4,199.2,107.7,203.2,117,203.2z"/>
	<path d="M281.2,220.9c-6.9-12.7-18-22.7-31.4-28.1c-5.7,6.4-14,10.5-23.3,10.5c23.9,0,43.6,17.8,46.8,40.8c0.3,2.1,0.5,4.3,0.5,6.5
		C273.8,239.8,276.5,229.7,281.2,220.9z"/>
	<path d="M226.5,203.2c-9.3,0-17.6-4-23.3-10.5c-13.4,5.5-24.6,15.5-31.4,28.1c-4.8,8.8-7.5,18.9-7.5,29.6c0,4.1,3.4,7.5,7.5,7.5
		s7.5-3.4,7.5-7.5c0-2.2,0.2-4.4,0.5-6.5C182.9,221,202.6,203.2,226.5,203.2z"/>
	<path d="M195.2,152.8V172c0,8,3,15.3,7.9,20.8c5.7,6.4,14.1,10.5,23.3,10.5c9.3,0,17.6-4,23.3-10.5c4.9-5.5,7.9-12.8,7.9-20.8
		v-19.2c0-14.5-9.9-26.7-23.3-30.2c-0.3,2.1-0.5,4.3-0.5,6.5c0,4.1-3.4,7.5-7.5,7.5c9,0,16.2,7.3,16.2,16.2V172
		c0,9-7.3,16.2-16.2,16.2c-9,0-16.3-7.3-16.3-16.2v-19.2c0-9,7.3-16.2,16.3-16.2c-4.1,0-7.5-3.4-7.5-7.5c0-2.2-0.2-4.4-0.5-6.5
		C205.2,126.1,195.2,138.3,195.2,152.8z"/>
	<path d="M171.7,81.8c23.9,0,43.6,17.8,46.8,40.8c0.3,2.1,0.5,4.3,0.5,6.5c0-10.7,2.7-20.8,7.5-29.6c-6.9-12.7-18-22.7-31.4-28.1
		C189.3,77.7,181,81.8,171.7,81.8z"/>
	<path d="M117,136.5c4.1,0,7.5-3.4,7.5-7.5c0-2.2,0.2-4.4,0.5-6.5c3.2-23,22.9-40.8,46.8-40.8c-9.3,0-17.6-4-23.3-10.5
		c-20.8,8.4-36.1,27.9-38.6,51c-0.2,2.2-0.4,4.4-0.4,6.7C109.5,133.1,112.9,136.5,117,136.5z"/>
	<path d="M171.7,81.8c9.3,0,17.6-4,23.3-10.5c4.9-5.5,7.9-12.8,7.9-20.8V31.2C203,14,189,0,171.7,0s-31.2,14-31.2,31.2v19.2
		c0,8,3,15.3,7.9,20.8C154.2,77.7,162.5,81.8,171.7,81.8z M155.5,50.5V31.2c0-9,7.3-16.2,16.2-16.2S188,22.3,188,31.2v19.2
		c0,9-7.3,16.2-16.2,16.2S155.5,59.5,155.5,50.5z"/>
	<path d="M281.2,81.8c23.9,0,43.6,17.8,46.8,40.8c2.5-0.7,5.2-1,8-1c2.5,0,4.8,0.3,7.1,0.8c-2.5-23.2-17.7-42.6-38.6-51
		C298.8,77.7,290.5,81.8,281.2,81.8z"/>
	<path d="M219,129c0,4.1,3.4,7.5,7.5,7.5c4.1,0,7.5-3.4,7.5-7.5c0-2.2,0.2-4.4,0.5-6.5c3.2-23,22.9-40.8,46.8-40.8
		c-9.3,0-17.6-4-23.3-10.5c-13.4,5.5-24.6,15.5-31.4,28.1C221.7,108.2,219,118.3,219,129z"/>
	<path d="M281.2,81.8c9.3,0,17.6-4,23.3-10.5c4.9-5.5,7.9-12.8,7.9-20.8V31.2c0-17.2-14-31.2-31.2-31.2S250,14,250,31.2v19.2
		c0,8,3,15.3,7.9,20.8C263.7,77.7,272,81.8,281.2,81.8z M265,50.5V31.2c0-9,7.3-16.2,16.2-16.2s16.2,7.3,16.2,16.2v19.2
		c0,9-7.3,16.2-16.2,16.2S265,59.5,265,50.5z"/>
	<path d="M336,203.2c-9.3,0-17.6-4-23.3-10.5c-13.4,5.5-24.6,15.5-31.4,28.1c-4.8,8.8-7.5,18.9-7.5,29.6c0,4.1,3.4,7.5,7.5,7.5
		s7.5-3.4,7.5-7.5c0-2.2,0.2-4.4,0.5-6.5C292.4,221,312.1,203.2,336,203.2z"/>
	<path d="M336,203.2c23.9,0,43.6,17.8,46.8,40.8c2.5-0.7,5.2-1,8-1c2.5,0,4.8,0.3,7.1,0.8c-2.5-23.2-17.7-42.6-38.6-51
		C353.6,199.2,345.3,203.2,336,203.2z"/>
	<path d="M328,122.5c-13.4,3.5-23.3,15.7-23.3,30.2V172c0,8,3,15.3,7.9,20.8c5.7,6.4,14,10.5,23.3,10.5s17.6-4,23.3-10.5
		c4.9-5.5,7.9-12.8,7.9-20.8v-19.2c0-14.8-10.3-27.2-24.1-30.4c-2.3-0.5-4.7-0.8-7.1-0.8C333.3,121.5,330.6,121.9,328,122.5z
		 M352.2,152.8V172c0,9-7.3,16.2-16.2,16.2s-16.2-7.3-16.2-16.2v-19.2c0-9,7.3-16.2,16.2-16.2S352.2,143.8,352.2,152.8z"/>
	<path d="M367.4,314.3c-13.4,5.5-24.6,15.5-31.4,28.1c-4.8,8.8-7.5,18.9-7.5,29.6c0,4.1,3.4,7.5,7.5,7.5s7.5-3.4,7.5-7.5
		c0-26.1,21.2-47.2,47.2-47.2C381.5,324.8,373.2,320.7,367.4,314.3z"/>
	<path d="M414.1,314.3c-5.7,6.4-14,10.5-23.3,10.5c26.1,0,47.2,21.2,47.2,47.2c0,4.1,3.4,7.5,7.5,7.5s7.5-3.4,7.5-7.5
		C453,345.9,436.9,323.5,414.1,314.3z"/>
	<path d="M414.1,314.3c4.9-5.5,7.9-12.8,7.9-20.8v-19.2c0-14.8-10.3-27.2-24.1-30.4c-2.3-0.5-4.7-0.8-7.1-0.8c-2.7,0-5.4,0.4-8,1
		c-13.4,3.5-23.3,15.7-23.3,30.2v19.2c0,8,3,15.3,7.9,20.8c5.7,6.4,14,10.5,23.3,10.5S408.3,320.7,414.1,314.3z M374.5,293.5v-19.2
		c0-9,7.3-16.2,16.2-16.2s16.2,7.3,16.2,16.2v19.2c0,9-7.3,16.2-16.2,16.2S374.5,302.5,374.5,293.5z"/>
</g>
</svg>
