<?xml version="1.0" encoding="utf-8"?>
<!-- Generator: Adobe Illustrator 19.1.0, SVG Export Plug-In . SVG Version: 6.00 Build 0)  -->
<svg version="1.2" baseProfile="tiny" id="Camada_1"
	 xmlns="http://www.w3.org/2000/svg" xmlns:xlink="http://www.w3.org/1999/xlink" x="0px" y="0px" viewBox="0 0 401.3 401.3"
	 xml:space="preserve">
<g>
	<path fill="none" d="M197.6,122.5l0.2,0.9c0.2,0.9,0.9,1.5,1.8,1.5h6.2l2.8,1.4c0.1,0,0.2,0.1,0.3,0.1c0.2,0.1,0.4,0.1,0.6,0.1
		c0.8,0,1.5-0.5,1.7-1.3l0.4-1.3l4.8,0.4c0.1,0,0.1,0,0.2,0c0.6,0,1.2-0.3,1.5-0.8c0,0,0.3-0.4,0.6-1.1c0.1-0.3,0.3-0.8,0.1-1.7
		c-0.1-0.4-0.5-0.9-0.9-1.1c-0.3-0.2-0.6-0.3-0.9-0.3c0,0,0,0,0,0c0,0,0,0-0.1,0c-0.1,0-0.1,0-0.2,0c0.1,0,0.2,0,0.2,0c0,0,0,0,0,0
		c-0.1-0.1-0.3-0.2-0.6-0.3c-0.5-0.3-1.2-0.7-1.8-1.1c-1.3-0.8-2.5-1.6-2.5-1.6c-0.3-0.2-0.6-0.3-1-0.3L203,116h0c0,0-0.1,0-0.1,0
		c0,0-0.1,0-0.1,0c0,0-0.1,0-0.1,0c-1,0.1-1.7,1.1-1.6,2.1l0.2,1.3l-2.6,1.1C197.9,120.8,197.4,121.7,197.6,122.5z"/>
	<path fill="none" d="M295.7,186.8c0,0-0.1-0.1-0.1-0.1l-8.9-6.2c-0.2-0.1-0.4-0.2-0.7-0.3l-6.4-1.3l-8.2-3.9c0,0-0.1,0-0.1-0.1
		l-6.3-2.4l-1.5-3.6l-3.1-9.2c-0.2-0.5-0.6-1-1.1-1.1l-6.2-2.2c-0.1,0-0.2-0.1-0.3-0.1c-0.1,0-0.2,0-0.4,0c-0.9,0-1.6,0.6-1.8,1.5
		l-1.1,5.7l-8.1,3.3l-1.2-0.6l-1.6-5.8c-0.1-0.2-0.2-0.4-0.3-0.6l-2.9-3.9l3.9-6.9c0-0.1,0.1-0.2,0.1-0.3c0.3-1-0.1-2-1.1-2.4
		l-11.9-4.4c-0.1,0-0.2-0.1-0.3-0.1l-10.6-2.2c-0.1,0-0.2,0-0.3,0l-8-0.4c0,0-0.1,0-0.1,0c-0.6,0-1.2,0.3-1.6,0.9l-0.3-0.7
		c-0.3-0.7-1-1.1-1.7-1.1c-0.1,0-0.3,0-0.4,0l-10.2,2.2c-0.7,0.2-1.3,0.7-1.4,1.5l-0.5,3l-7.4-1.8c-0.1,0-0.3-0.1-0.5-0.1h0
		l-4.6,0.1L175,140v-10.7c0-1-0.8-1.8-1.7-1.8l-13-0.8l-0.2-3.1l3.1-2.1c0.2-0.1,0.4-0.3,0.5-0.5l3.1-4.4c0.2-0.2,0.3-0.5,0.3-0.8
		c0.1-1-0.6-1.9-1.6-2l-11.1-1.3c-0.1,0-0.1,0-0.2,0c-0.9,0-1.6,0.6-1.8,1.5l-1.1,5.4l-6.8,1l-3.5-6.3l1.6-8.2
		c0.1-0.7-0.1-1.4-0.7-1.8l-4.4-3.2l-2.5-6.6c0-0.1-0.1-0.2-0.1-0.2c-0.3-0.6-1-0.9-1.6-0.9c-0.3,0-0.6,0.1-0.9,0.2l-2.8,1.5
		l-4.8-4.8c-0.4-0.4-0.8-0.5-1.3-0.5c-0.2,0-0.3,0-0.5,0.1l-7,2.1l-8.8-2.5c-0.2,0-0.3-0.1-0.5-0.1c0,0,0,0-0.1,0v0
		c-0.7,0-1.4,0.5-1.7,1.2l-2.7,6.6c-0.2,0.4-0.2,0.9,0,1.3l4.9,12.8c0.3,0.7,1,1.2,1.7,1.2c0.1,0,0.2,0,0.2,0c1-0.1,1.7-1.1,1.6-2.1
		l-1.6-12.2l0.6-0.2l1.8,9c0.1,0.3,0.2,0.6,0.4,0.8l8.9,10.9l-1.5,2.4c0,0-0.1,0.1-0.1,0.1c-0.5,0.9-0.1,2,0.8,2.5l12.8,6.6
		c0.2,0.1,0.5,0.2,0.8,0.2l9.3,0.4l9.8,6c0.2,0.1,0.5,0.2,0.8,0.3l8.2,0.8l2.7,6.1c0.1,0.3,0.4,0.6,0.6,0.8l9.7,6.6
		c0.3,0.2,0.6,0.3,1,0.3L186,152l0.4,10.4l-9.7,11.4c-0.4,0.5-0.5,1.2-0.3,1.8l1.5,4.5l-2.2,3.7c-0.2,0.4-0.3,0.9-0.2,1.4l1.3,5.8
		c0.2,0.7,0.7,1.2,1.3,1.4l4.1,1.1l7.8,15.2l-0.4,4.3c-0.1,0.7,0.3,1.5,1,1.8l15.3,7.9l-0.4,14.2l-4.8,29l-2.2,9.7c0,0,0,0.1,0,0.1
		l-1.8,10.2c0,0.1,0,0.1,0,0.2l-1.3,17.3c-0.1,0.7,0.3,1.4,0.9,1.7l12.8,7.1c0.3,0.2,0.6,0.2,0.9,0.2c0.3,0,0.6-0.1,0.9-0.2
		c0.9-0.5,1.2-1.6,0.8-2.5l-3.8-7.2l5.6-5.2c0.6-0.6,0.8-1.4,0.4-2.2l-1.8-3.6l3.1-1.4c0.5-0.2,0.9-0.7,1-1.2l1.9-7.5h4.3h0
		c0.9,0,1.7-0.7,1.8-1.6l0.3-2.3l8,0.4c0,0,0.1,0,0.1,0c0.5,0,1-0.2,1.4-0.6l4.4-4.9c0.5-0.6,0.6-1.4,0.3-2.1l-1.3-2.6l4.5,1.2
		c0.2,0,0.3,0.1,0.5,0.1c0.4,0,0.9-0.2,1.2-0.5l13.3-11.5c0.2-0.2,0.4-0.5,0.5-0.8l3.3-10l9.8-5.7l6.4-1.7c0.3-0.1,0.7-0.3,0.9-0.6
		l7.5-8.4c0.2-0.2,0.3-0.5,0.4-0.8l3.8-16.7l6.2-5.4c0.2-0.2,0.4-0.5,0.5-0.7l2.7-7.1c0.1-0.2,0.1-0.4,0.1-0.6v-8
		c0-0.5-0.2-1.1-0.7-1.4L295.7,186.8z"/>
	<path fill="none" d="M170.2,112.7c0.1,0,0.2,0,0.4,0l4.9-1.1l10,4.6l5.7,4.4c0.3,0.3,0.7,0.4,1.1,0.4c0.2,0,0.5,0,0.7-0.1l5.9-2.5
		c0.4-0.2,0.7-0.4,0.9-0.8c0.5-0.9,0.2-2-0.7-2.5l-6.2-3.6c0,0,0,0,0,0l-7.8-4.3c-0.3-0.2-0.6-0.2-0.9-0.2v0v0c0,0-0.1,0-0.1,0
		s-0.1,0-0.1,0l-7.8,0.7c-0.1,0-0.2,0-0.3,0.1l-6.1,1.6c-0.9,0.3-1.5,1.2-1.3,2.1C168.6,112.1,169.3,112.7,170.2,112.7z"/>
	<path fill="none" d="M216.8,119.4c0,0,0,0-0.1,0C216.7,119.4,216.7,119.4,216.8,119.4C216.8,119.4,216.8,119.4,216.8,119.4z"/>
	<path fill="none" d="M200.7,22.5c-47.6,0-92.3,18.5-126,52.2c-33.6,33.6-52.2,78.4-52.2,126S41,293,74.7,326.6
		c33.6,33.6,78.4,52.2,126,52.2c47.6,0,92.3-18.5,126-52.2c33.6-33.6,52.2-78.4,52.2-126s-18.5-92.3-52.2-126
		C293,41,248.2,22.5,200.7,22.5z M314,190.5v8c0,2-0.4,4-1.1,5.9l-2.7,7.1c0,0,0,0.1,0,0.1c-1,2.6-2.6,4.9-4.7,6.7l-2.5,2.2
		l-2.8,11.9c0,0,0,0,0,0.1c-0.6,2.7-2,5.3-3.8,7.4l-7.5,8.4c-2.2,2.4-5,4.2-8.1,5c0,0-0.1,0-0.1,0l-4.5,1.2l-3.2,1.9l-1.5,4.6
		c0,0,0,0.1,0,0.1c-1,2.8-2.7,5.4-4.9,7.3l-13.3,11.5c-1.1,1-2.4,1.8-3.8,2.5c0,0-0.1,0.1-0.1,0.1l-4.4,4.9
		c-3.2,3.5-7.6,5.5-12.3,5.5c-0.8,0.6-1.7,1.2-2.6,1.7c-0.3,0.8-0.7,1.6-1.1,2.3c-0.2,3.1-1.2,6.1-2.9,8.6c1,3.2,1,6.7,0.1,9.9
		c-1.3,4.3-4.2,7.8-8.2,10c-2.4,1.3-5.2,2-7.9,2c-2.9,0-5.7-0.7-8.2-2.1l-12.8-7.1c-5.8-3.2-9.1-9.5-8.6-16l1.3-17.3
		c0-0.1,0-0.3,0-0.4c0-0.4,0.1-0.8,0.2-1.3l1.7-10.1c0-0.2,0.1-0.4,0.1-0.6c0-0.1,0-0.2,0.1-0.3l2.1-9.3l4.6-27.6l0.1-3.7l-6.9-3.6
		c-6.1-3.1-9.7-9.6-9.1-16.5l0,0l-2.9-5.7c-4.8-2.1-8.4-6.4-9.6-11.6l-1.3-5.8c-0.8-3.4-0.5-6.9,0.8-10.1c-1-5,0.3-10.4,3.7-14.3
		l0.6-0.7l-9.2-6.3c-2-1.4-3.7-3.1-4.9-5.2c-2.4-0.3-4.7-1.1-6.8-2.3l-6.5-3.9l-5.4-0.2c-2.4-0.1-4.8-0.7-6.9-1.8l-12.9-6.7
		c-4-2-6.9-5.5-8.3-9.8c0-0.1-0.1-0.2-0.1-0.3c-5.2-1.4-9.6-5.2-11.6-10.4l-4.9-12.8c0,0,0,0,0,0c-1.5-4-1.4-8.3,0.1-12.2l2.7-6.6
		c2.3-5.8,7.6-9.8,13.7-10.5c0.5-0.1,1-0.1,1.5-0.1c0.2,0,0.3,0,0.5,0c1.5,0,3.1,0.2,4.5,0.6c0,0,0.1,0,0.1,0L116,76l2.8-0.8
		c1.5-0.5,3.1-0.7,4.7-0.7c3.7,0,7.4,1.3,10.3,3.6c5.9,0.2,11.3,3.5,14.1,8.7c0.4,0.7,0.8,1.5,1,2.3l0.9,2.3l0.8,0.6c0,0,0,0,0,0
		c2.1,1.5,3.7,3.5,4.9,5.7c0.2,0,0.3,0,0.5,0l3.1,0.4c1.7-1.4,3.7-2.6,6-3.3c0.1,0,0.3-0.1,0.4-0.1l6.1-1.6c0.1,0,0.2,0,0.3-0.1
		c0.9-0.2,1.8-0.4,2.7-0.4l7.5-0.7c0.6-0.1,1.2-0.1,1.9-0.1c0,0,0.1,0,0.1,0c2.8,0,5.6,0.8,8,2.1l7.8,4.3c0.4,0.2,0.7,0.4,1,0.6
		l3.9,2.3l6.2,0.1c3.2,0.1,6.4,1.1,9,2.9c0,0,1,0.7,2,1.3c0.1,0,0.1,0.1,0.2,0.1c0.9,0.3,1.9,0.8,2.7,1.3c3.5,2,6.3,5.4,7.6,9.2
		c0.9,2.6,1.7,6.8-0.1,11.6c-0.1,0.2-0.1,0.4-0.2,0.5l11.2,4.1c4.2,1.6,7.5,4.6,9.4,8.7c0.1,0.2,0.1,0.3,0.2,0.5
		c0.8,0,1.6,0.1,2.4,0.3c0.8,0.2,1.6,0.4,2.3,0.6l6.2,2.2c4.9,1.8,8.7,5.6,10.3,10.5l2,6c0.1,0.1,0.3,0.1,0.4,0.2
		c0.3,0.1,0.6,0.3,0.9,0.4l6.4,3l4.6,0.9c2.3,0.5,4.4,1.4,6.3,2.7l8.8,6.2c0.3,0.2,0.6,0.5,1,0.7c0.1,0.1,0.2,0.1,0.3,0.2l2.6,2.2
		C311.7,180.7,313.9,185.4,314,190.5L314,190.5z M232.7,127.4L232.7,127.4L232.7,127.4z"/>
	
		<line fill="none" stroke="#000000" stroke-width="0" stroke-linecap="round" stroke-linejoin="round" x1="232.7" y1="127.4" x2="232.7" y2="127.4"/>
	<path d="M200.7,7.5C94,7.5,7.5,94,7.5,200.7S94,393.8,200.7,393.8c106.7,0,193.2-86.5,193.2-193.2S307.3,7.5,200.7,7.5z
		 M326.6,326.6c-33.6,33.6-78.4,52.2-126,52.2c-47.6,0-92.3-18.5-126-52.2C41,293,22.5,248.2,22.5,200.7s18.5-92.3,52.2-126
		c33.6-33.6,78.4-52.2,126-52.2c47.6,0,92.3,18.5,126,52.2c33.6,33.6,52.2,78.4,52.2,126S360.3,293,326.6,326.6z"/>
	<path d="M216.8,119.4C216.8,119.4,216.8,119.4,216.8,119.4C216.8,119.4,216.8,119.4,216.8,119.4
		C216.8,119.4,216.8,119.4,216.8,119.4z"/>
	<path d="M216.7,119.4C216.7,119.4,216.7,119.4,216.7,119.4c-0.1,0-0.1,0-0.2,0C216.6,119.4,216.7,119.4,216.7,119.4z"/>
	<path d="M307.9,177.5l-2.6-2.2c-0.1-0.1-0.2-0.1-0.3-0.2c-0.3-0.2-0.6-0.5-1-0.7l-8.8-6.2c-1.9-1.3-4-2.2-6.3-2.7l-4.6-0.9l-6.4-3
		c-0.3-0.2-0.6-0.3-0.9-0.4c-0.1-0.1-0.3-0.1-0.4-0.2l-2-6c-1.6-4.9-5.4-8.8-10.3-10.5l-6.2-2.2c-0.8-0.3-1.6-0.5-2.3-0.6
		c-0.8-0.2-1.6-0.3-2.4-0.3c-0.1-0.2-0.1-0.3-0.2-0.5c-1.9-4.1-5.2-7.1-9.4-8.7l-11.2-4.1c0.1-0.2,0.1-0.3,0.2-0.5
		c1.7-4.8,1-9,0.1-11.6c-1.3-3.8-4.1-7.2-7.6-9.2c-0.9-0.5-1.8-0.9-2.7-1.3c-0.1,0-0.1-0.1-0.2-0.1c-1-0.6-2-1.3-2-1.3
		c-2.7-1.8-5.8-2.8-9-2.9L205,101l-3.9-2.3c-0.3-0.2-0.7-0.4-1-0.6l-7.8-4.3c-2.4-1.4-5.2-2.1-8-2.1c0,0-0.1,0-0.1,0
		c-0.6,0-1.3,0-1.9,0.1l-7.5,0.7c-0.9,0.1-1.8,0.2-2.7,0.4c-0.1,0-0.2,0-0.3,0.1l-6.1,1.6c-0.1,0-0.3,0.1-0.4,0.1
		c-2.3,0.7-4.3,1.8-6,3.3l-3.1-0.4c-0.2,0-0.3,0-0.5,0c-1.2-2.2-2.8-4.1-4.9-5.7c0,0,0,0,0,0l-0.8-0.6l-0.9-2.3
		c-0.3-0.8-0.6-1.5-1-2.3c-2.9-5.2-8.2-8.5-14.1-8.7c-2.9-2.3-6.6-3.6-10.3-3.6c-1.6,0-3.2,0.2-4.7,0.7L116,76l-4.6-1.3
		c0,0-0.1,0-0.1,0c-1.5-0.4-3-0.6-4.5-0.6c-0.2,0-0.3,0-0.5,0c-0.5,0-1,0.1-1.5,0.1c-6.1,0.7-11.4,4.7-13.7,10.5l-2.7,6.6
		c-1.6,3.9-1.6,8.2-0.1,12.2c0,0,0,0,0,0l4.9,12.8c2,5.2,6.3,9,11.6,10.4c0,0.1,0.1,0.2,0.1,0.3c1.4,4.3,4.3,7.8,8.3,9.8l12.9,6.7
		c2.2,1.1,4.5,1.7,6.9,1.8l5.4,0.2l6.5,3.9c2,1.2,4.4,2.1,6.8,2.3c1.2,2,2.9,3.8,4.9,5.2l9.2,6.3l-0.6,0.7
		c-3.4,3.9-4.7,9.3-3.7,14.3c-1.3,3.2-1.6,6.7-0.8,10.1l1.3,5.8c1.2,5.2,4.8,9.5,9.6,11.6l2.9,5.7l0,0c-0.6,6.9,3,13.3,9.1,16.5
		l6.9,3.6l-0.1,3.7l-4.6,27.6l-2.1,9.3c0,0.1,0,0.2-0.1,0.3c0,0.2-0.1,0.4-0.1,0.6l-1.7,10.1c-0.1,0.4-0.1,0.8-0.2,1.3
		c0,0.1,0,0.3,0,0.4l-1.3,17.3c-0.5,6.5,2.9,12.8,8.6,16l12.8,7.1c2.5,1.4,5.3,2.1,8.2,2.1c2.8,0,5.5-0.7,7.9-2
		c4-2.1,6.9-5.7,8.2-10c1-3.3,1-6.7-0.1-9.9c1.8-2.6,2.8-5.6,2.9-8.6c0.4-0.7,0.8-1.5,1.1-2.3c0.9-0.5,1.8-1,2.6-1.7
		c4.7,0,9.1-2,12.3-5.5l4.4-4.9c0,0,0.1-0.1,0.1-0.1c1.4-0.6,2.6-1.5,3.8-2.5l13.3-11.5c2.3-2,4-4.5,4.9-7.3c0,0,0-0.1,0-0.1
		l1.5-4.6l3.2-1.9l4.5-1.2c0,0,0.1,0,0.1,0c3.1-0.9,6-2.6,8.1-5l7.5-8.4c1.9-2.1,3.2-4.6,3.8-7.4c0,0,0,0,0-0.1l2.8-11.9l2.5-2.2
		c2.1-1.8,3.7-4.1,4.7-6.7c0,0,0-0.1,0-0.1l2.7-7.1c0.7-1.9,1.1-3.9,1.1-5.9v-8v-0.1C313.9,185.4,311.7,180.7,307.9,177.5z
		 M201.3,119.4l-0.2-1.3c-0.1-1,0.6-1.9,1.6-2.1c0,0,0.1,0,0.1,0c0,0,0.1,0,0.1,0c0,0,0.1,0,0.1,0h0l7.8,0.2c0.4,0,0.7,0.1,1,0.3
		c0,0,1.2,0.8,2.5,1.6c0.6,0.4,1.3,0.8,1.8,1.1c0.3,0.1,0.5,0.2,0.6,0.3c0,0,0,0,0,0c0.1,0,0.1,0,0.1,0c0.3,0,0.6,0.1,0.9,0.3
		c0.4,0.2,0.8,0.7,0.9,1.1c0.3,0.8,0.1,1.3-0.1,1.7c-0.2,0.7-0.6,1.1-0.6,1.1c-0.3,0.5-0.9,0.8-1.5,0.8c-0.1,0-0.1,0-0.2,0l-4.8-0.4
		l-0.4,1.3c-0.3,0.8-1,1.3-1.7,1.3c-0.2,0-0.4,0-0.6-0.1c-0.1,0-0.2-0.1-0.3-0.1l-2.8-1.4h-6.2c-0.9,0-1.6-0.6-1.8-1.5l-0.2-0.9
		c-0.2-0.9,0.3-1.7,1.1-2L201.3,119.4z M169.7,109.1l6.1-1.6c0.1,0,0.2,0,0.3-0.1l7.8-0.7c0,0,0.1,0,0.1,0s0.1,0,0.1,0v0v0
		c0.3,0,0.6,0.1,0.9,0.2l7.8,4.3c0,0,0,0,0,0l6.2,3.6c0.9,0.5,1.2,1.6,0.7,2.5c-0.2,0.3-0.5,0.6-0.9,0.8l-5.9,2.5
		c-0.2,0.1-0.5,0.1-0.7,0.1c-0.4,0-0.8-0.1-1.1-0.4l-5.7-4.4l-10-4.6l-4.9,1.1c-0.1,0-0.2,0-0.4,0c-0.9,0-1.6-0.6-1.8-1.5
		C168.2,110.3,168.7,109.4,169.7,109.1z M299,198.4c0,0.2,0,0.4-0.1,0.6l-2.7,7.1c-0.1,0.3-0.3,0.5-0.5,0.7l-6.2,5.4l-3.8,16.7
		c-0.1,0.3-0.2,0.6-0.4,0.8l-7.5,8.4c-0.2,0.3-0.5,0.5-0.9,0.6l-6.4,1.7l-9.8,5.7l-3.3,10c-0.1,0.3-0.3,0.6-0.5,0.8l-13.3,11.5
		c-0.3,0.3-0.8,0.5-1.2,0.5c-0.2,0-0.3,0-0.5-0.1l-4.5-1.2l1.3,2.6c0.3,0.7,0.2,1.5-0.3,2.1l-4.4,4.9c-0.3,0.4-0.8,0.6-1.4,0.6
		c0,0-0.1,0-0.1,0l-8-0.4l-0.3,2.3c-0.1,0.9-0.9,1.6-1.8,1.6h0H218l-1.9,7.5c-0.1,0.5-0.5,1-1,1.2l-3.1,1.4l1.8,3.6
		c0.4,0.7,0.2,1.6-0.4,2.2l-5.6,5.2l3.8,7.2c0.5,0.9,0.1,2-0.8,2.5c-0.3,0.1-0.6,0.2-0.9,0.2c-0.3,0-0.6-0.1-0.9-0.2l-12.8-7.1
		c-0.6-0.3-1-1-0.9-1.7l1.3-17.3c0-0.1,0-0.1,0-0.2l1.8-10.2c0,0,0-0.1,0-0.1l2.2-9.7l4.8-29l0.4-14.2l-15.3-7.9
		c-0.7-0.3-1.1-1.1-1-1.8l0.4-4.3l-7.8-15.2l-4.1-1.1c-0.7-0.2-1.2-0.7-1.3-1.4l-1.3-5.8c-0.1-0.5,0-1,0.2-1.4l2.2-3.7l-1.5-4.5
		c-0.2-0.6-0.1-1.3,0.3-1.8l9.7-11.4L186,152l-10.2-0.4c-0.3,0-0.7-0.1-1-0.3l-9.7-6.6c-0.3-0.2-0.5-0.5-0.6-0.8l-2.7-6.1l-8.2-0.8
		c-0.3,0-0.5-0.1-0.8-0.3l-9.8-6l-9.3-0.4c-0.3,0-0.5-0.1-0.8-0.2l-12.8-6.6c-0.9-0.5-1.3-1.6-0.8-2.5c0,0,0-0.1,0.1-0.1l1.5-2.4
		l-8.9-10.9c-0.2-0.2-0.3-0.5-0.4-0.8l-1.8-9l-0.6,0.2l1.6,12.2c0.1,1-0.6,1.9-1.6,2.1c-0.1,0-0.2,0-0.2,0c-0.8,0-1.4-0.5-1.7-1.2
		l-4.9-12.8c-0.2-0.4-0.2-0.9,0-1.3l2.7-6.6c0.3-0.7,0.9-1.1,1.7-1.2v0c0,0,0,0,0.1,0c0.2,0,0.3,0,0.5,0.1l8.8,2.5l7-2.1
		c0.2,0,0.3-0.1,0.5-0.1c0.5,0,1,0.2,1.3,0.5l4.8,4.8l2.8-1.5c0.3-0.2,0.6-0.2,0.9-0.2c0.6,0,1.3,0.3,1.6,0.9c0,0.1,0.1,0.2,0.1,0.2
		l2.5,6.6l4.4,3.2c0.6,0.4,0.9,1.1,0.7,1.8l-1.6,8.2l3.5,6.3l6.8-1l1.1-5.4c0.2-0.9,0.9-1.5,1.8-1.5c0.1,0,0.1,0,0.2,0l11.1,1.3
		c1,0.1,1.7,1,1.6,2c0,0.3-0.1,0.6-0.3,0.8l-3.1,4.4c-0.1,0.2-0.3,0.4-0.5,0.5l-3.1,2.1l0.2,3.1l13,0.8c1,0.1,1.7,0.9,1.7,1.8V140
		l3.7,3.1l4.6-0.1h0c0.2,0,0.3,0,0.5,0.1l7.4,1.8l0.5-3c0.1-0.7,0.7-1.3,1.4-1.5l10.2-2.2c0.1,0,0.3,0,0.4,0c0.7,0,1.4,0.4,1.7,1.1
		l0.3,0.7c0.3-0.6,0.9-0.9,1.6-0.9c0,0,0.1,0,0.1,0l8,0.4c0.1,0,0.2,0,0.3,0l10.6,2.2c0.1,0,0.2,0,0.3,0.1l11.9,4.4
		c1,0.3,1.4,1.4,1.1,2.4c0,0.1-0.1,0.2-0.1,0.3l-3.9,6.9l2.9,3.9c0.1,0.2,0.2,0.4,0.3,0.6l1.6,5.8l1.2,0.6l8.1-3.3l1.1-5.7
		c0.2-0.9,0.9-1.5,1.8-1.5c0.1,0,0.2,0,0.4,0c0.1,0,0.2,0,0.3,0.1l6.2,2.2c0.5,0.2,0.9,0.6,1.1,1.1l3.1,9.2l1.5,3.6l6.3,2.4
		c0,0,0.1,0,0.1,0.1l8.2,3.9l6.4,1.3c0.2,0,0.5,0.1,0.7,0.3l8.9,6.2c0,0,0.1,0.1,0.1,0.1l2.6,2.2c0.4,0.3,0.7,0.9,0.7,1.4V198.4z"/>
</g>
</svg>
