<?xml version="1.0" encoding="utf-8"?>
<!-- Generator: Adobe Illustrator 19.1.0, SVG Export Plug-In . SVG Version: 6.00 Build 0)  -->
<svg version="1.2" baseProfile="tiny" id="Camada_1"
	 xmlns="http://www.w3.org/2000/svg" xmlns:xlink="http://www.w3.org/1999/xlink" x="0px" y="0px" viewBox="0 0 419.5 439.5"
	 xml:space="preserve">
<g>
	<path fill="none" d="M134.7,127.5c0-4.1,3.4-7.5,7.5-7.5h242.3V75h-99.3c-4.1,0-7.5-3.4-7.5-7.5s3.4-7.5,7.5-7.5H392h7.9l-22.5-45
		H42.1L19.6,60h7.9c0,0,0,0,0,0s0,0,0,0h193.7c4.1,0,7.5,3.4,7.5,7.5s-3.4,7.5-7.5,7.5H35v45h62.2c4.1,0,7.5,3.4,7.5,7.5
		s-3.4,7.5-7.5,7.5H35v289.5h349.5V135H142.2C138,135,134.7,131.6,134.7,127.5z"/>
	<path d="M27.5,120H35V75h186.2c4.1,0,7.5-3.4,7.5-7.5s-3.4-7.5-7.5-7.5H27.5c0,0,0,0,0,0c4.1,0,7.5,3.4,7.5,7.5
		c0,4.1-3.4,7.5-7.5,7.5H20v52.5C20,123.4,23.4,120,27.5,120z"/>
	<path d="M399.5,432V127.5c0,4.1-3.4,7.5-7.5,7.5h-7.5v289.5H35V135h-7.5c-4.1,0-7.5-3.4-7.5-7.5V432c0,4.1,3.4,7.5,7.5,7.5H392
		C396.1,439.5,399.5,436.1,399.5,432z"/>
	<path d="M384.5,67.5c0-4.1,3.4-7.5,7.5-7.5H285.2c-4.1,0-7.5,3.4-7.5,7.5s3.4,7.5,7.5,7.5h99.3v45h7.5c4.1,0,7.5,3.4,7.5,7.5V75
		H392C387.9,75,384.5,71.6,384.5,67.5z"/>
	<path d="M35,67.5c0-4.1-3.4-7.5-7.5-7.5c0,0,0,0,0,0h-7.9l22.5-45h335.2l22.5,45H392c-4.1,0-7.5,3.4-7.5,7.5s3.4,7.5,7.5,7.5h7.5
		H412c2.6,0,5-1.3,6.4-3.6c1.4-2.2,1.5-5,0.3-7.3l-30-60C387.4,1.6,384.8,0,382,0H37.5c-2.8,0-5.4,1.6-6.7,4.1l-30,60
		c-1.2,2.3-1,5.1,0.3,7.3C2.5,73.7,4.9,75,7.5,75H20h7.5C31.6,75,35,71.6,35,67.5z"/>
	<path d="M392,120h-7.5H142.2c-4.1,0-7.5,3.4-7.5,7.5s3.4,7.5,7.5,7.5h242.3h7.5c4.1,0,7.5-3.4,7.5-7.5S396.1,120,392,120z"/>
	<path d="M27.5,135H35h62.2c4.1,0,7.5-3.4,7.5-7.5s-3.4-7.5-7.5-7.5H35h-7.5c-4.1,0-7.5,3.4-7.5,7.5c0,0,0,0,0,0s0,0,0,0
		C20,131.6,23.4,135,27.5,135z"/>
</g>
<rect x="77.5" y="177.5" fill="none" stroke="#000000" stroke-width="15" stroke-linecap="round" stroke-linejoin="round" stroke-miterlimit="10" width="60" height="70"/>
<rect x="77.5" y="296.1" fill="none" stroke="#000000" stroke-width="15" stroke-linecap="round" stroke-linejoin="round" stroke-miterlimit="10" width="60" height="70"/>
<rect x="179.8" y="296.1" fill="none" stroke="#000000" stroke-width="15" stroke-linecap="round" stroke-linejoin="round" stroke-miterlimit="10" width="60" height="70"/>
<rect x="282" y="177.5" fill="none" stroke="#000000" stroke-width="15" stroke-linecap="round" stroke-linejoin="round" stroke-miterlimit="10" width="60" height="70"/>
<rect x="179.8" y="177.5" fill="none" stroke="#000000" stroke-width="15" stroke-linecap="round" stroke-linejoin="round" stroke-miterlimit="10" width="60" height="70"/>
<g>
	<rect x="289.5" y="303.6" fill="none" width="45" height="120.9"/>
	<path d="M289.5,303.6h45v120.9h15V296.1c0-4.1-3.4-7.5-7.5-7.5h-60c-4.1,0-7.5,3.4-7.5,7.5v128.4h15V303.6z"/>
	<path d="M412,424.5h-62.5h-15h-45h-15H7.5c-4.1,0-7.5,3.4-7.5,7.5s3.4,7.5,7.5,7.5H412c4.1,0,7.5-3.4,7.5-7.5
		S416.1,424.5,412,424.5z"/>
</g>
</svg>
