<?xml version="1.0" encoding="utf-8"?>
<!-- Generator: Adobe Illustrator 19.1.0, SVG Export Plug-In . SVG Version: 6.00 Build 0)  -->
<svg version="1.2" baseProfile="tiny" id="Layer_5" xmlns="http://www.w3.org/2000/svg" xmlns:xlink="http://www.w3.org/1999/xlink"
	 x="0px" y="0px" viewBox="0 0 343.5 348" xml:space="preserve">
<g id="heISUA.tif">
	<g>
		<path fill="none" stroke="#F9C913" stroke-width="25" stroke-linecap="round" stroke-miterlimit="10" d="M315.7,268.2
			c0,8.2,0,16.3,0,24.5c0,14.9-8.7,23.5-23.7,23.3c-57.3-1-109.1-18.8-154.8-53.2C81.8,221,46.1,166.2,32.8,97.7
			c-3-15.6-4-31.6-4.9-47.5c-0.8-13,8.7-22.1,21.6-22.1c17.7,0,35.3-0.1,53,0c11.2,0,20.8,8.4,21,19.2c0.4,18.9,4.7,36.9,10.5,54.6
			c3.3,10.1,1,18.2-6.2,25.5c-8.1,8.2-15.9,16.6-24,24.8c-2.3,2.3-2.3,4-0.8,6.8c18,33.3,43.8,58.8,77.3,76.3
			c1.4,0.8,4.2,0.7,5.5-0.2c10.7-7.4,21.2-15,31.7-22.6c5.4-3.9,11.2-5.3,17.8-3.6c13.5,3.4,27.1,6.7,40.7,9.5
			c6,1.2,12.2,1.5,18.4,1.7c12.1,0.4,21.1,9.2,21.2,21.3C315.8,250.2,315.7,259.2,315.7,268.2z"/>
	</g>
</g>
</svg>
